<svg xmlns="http://www.w3.org/2000/svg" viewBox="0 0 489.968 489.968" xml:space="preserve"><path d="M356.048 9.824c.191-4.021-2.228-7.698-5.978-9.18-3.765-1.458-8.012-.393-10.607 2.699-29.32 34.625-87.754 108.033-111.948 169.768-16.185 41.282-25.687 80.69-28.105 111.382h22.368c2.98-8.646 6.152-17.36 9.549-26.021 6.345-16.207 13.411-32.134 20.525-46.866 7.051-14.764 14.229-28.296 20.973-39.68 13.153-22.88 24.611-37.076 24.611-37.076s-1.25 18.2-7.146 43.926c-2.805 12.922-6.73 27.734-11.602 43.349-4.806 15.646-10.445 32.126-16.823 48.324-1.858 4.744-3.86 9.374-5.816 14.045h30.139c12.946-20.902 25.589-46.073 36.549-74.026 8.685-22.143 15.077-48.419 19.932-75.058l-14.403-5.647 16.534-7.218a756 756 0 0 0 3.35-22.104l-21.182 2.716 23.537-22.264c3.106-27.871 4.741-53.227 5.543-71.069m-45.426 367.025c-4.518-3.382-8.556-7.22-12.351-11.249-4.263-4.526-8.108-9.381-11.408-14.581h1.601c6.923 0 12.53-5.608 12.53-12.528v-25.06c0-6.92-5.607-12.528-12.53-12.528H271.56v-.008h-69.025v.008h-16.953c-6.922 0-12.529 5.608-12.529 12.528v25.06c0 6.921 5.607 12.528 12.529 12.528h1.651c-3.317 5.208-7.162 10.063-11.424 14.59-3.797 4.029-7.835 7.858-12.337 11.24-18.588 13.947-29.563 35.866-29.563 59.115V473.6c0 9.038 7.323 16.368 16.374 16.368h173.495c9.051 0 16.374-7.33 16.374-16.368v-37.636c0-23.249-10.942-45.168-29.53-59.115"/></svg>